<?xml version="1.0" encoding="UTF-8"?>
<svg id="Ebene_1" data-name="Ebene 1" xmlns="http://www.w3.org/2000/svg" viewBox="0 0 200 165">
  <defs>
    <style>
      .cls-1 {
        fill: none;
      }

      .cls-1, .cls-2 {
        stroke: #fff;
        fill: #fff;
        stroke-linecap: round;
        stroke-linejoin: round;
      }
    </style>
  </defs>
  <path class="cls-2" d="M177.11,51.06c-3.95-1.48-7.53-2.19-10.38-2.55-8.31-9-20.65-13.01-32.3-10.37-13.37,3.02-23.71,14.32-25.85,28.38,10.02,21.73,6.85,46.18-7.63,60.89-18.37,18.65-46.48,13.06-52.08,11.94-14.93-2.97-25.36-10.5-30.74-15.07,4.17,5.41,11.29,13.28,22.13,19.58,26.22,15.22,61.98,14.07,88.1-3.92,14.43-9.94,22.69-22.8,27.28-32.28,1.66-3.44,2.74-7.13,3.15-10.93.74-6.76,3.42-18.69,13.23-28.45,6.11-6.09,12.74-9.08,17.03-10.58-2.71-2.09-6.69-4.69-11.94-6.65ZM148.28,65.62c-3.75.75-7.4-2.06-7.4-6.12,0-2.38,1.46-4.6,3.64-5.56,3.76-1.64,7.81.63,8.58,4.4.67,3.34-1.48,6.59-4.82,7.27Z"/>
  <path class="cls-1" d="M148.28,65.62c-3.75.75-7.4-2.06-7.4-6.12,0-2.38,1.46-4.6,3.64-5.56,3.76-1.64,7.81.63,8.58,4.4.67,3.34-1.48,6.59-4.82,7.27Z"/>
  <path class="cls-2" d="M136.58,29.91c-2.88-.05-12.86-.58-21.34-8.22-5.17-4.67-7.55-9.97-8.61-12.92-5.95,8.83-6.02,19.07-.98,24.67,2.94,3.26,8.66,6.12,13.53,4.82,2.23-.59,2.95-1.7,6.05-3.65,4.43-2.78,8.59-4.06,11.36-4.7Z"/>
  <path class="cls-2" d="M58.32,6c-1.09,1.28-7.95,9.57-6.17,20.63,1.65,10.22,10.02,18.66,21.07,21.07,3.57.8,7.83,2.09,12.41,4.18,7.31,3.35,12.73,7.53,16.38,10.87-.87-2.17-2.12-4.66-3.97-7.19-5.3-7.28-12.31-10.57-16-11.97-3.26-1.45-14.58-6.98-20.41-19.97-3.23-7.19-3.47-13.78-3.3-17.62Z"/>
  <path class="cls-2" d="M24.47,12.61c2.93,6.5,8.29,16.13,17.84,25.18,14.07,13.34,29.65,18.23,38.24,20.14,4.4.98,8.63,2.66,12.34,5.2,3.14,2.15,6.47,5.19,9.18,9.45,5.01,7.88,5.22,15.69,5.14,18.79-2.6-2.18-6.08-4.59-10.5-6.53-8.5-3.73-16.59-3.98-22.27-3.47-4.97.45-9.97-.24-14.62-2.05-8.59-3.34-20.92-10.32-29.19-24.44-11.22-19.18-7.14-38.21-6.17-42.29Z"/>
  <path class="cls-2" d="M30.35,66.5c3.38,4.41,12.6,15.22,28.78,20.63,10.69,3.58,20.19,3.38,26.28,2.64,2.85-.34,5.75.13,8.32,1.4,1.41.7,2.92,1.58,4.46,2.7,3.7,2.7,6.05,5.68,7.42,7.71-18.08,12.27-41.01,12.35-56.82.66-16.79-12.41-18.26-32.68-18.43-35.75Z"/>
  <path class="cls-2" d="M104.47,110.28c-12.49,19.27-35.46,28.42-56.22,22.94-24.22-6.39-40.89-31.5-37.07-58.47,1.49,3.85,11.28,27.99,38.47,38.47,27.48,10.59,51.19-1.08,54.82-2.94Z"/>
</svg>